<?xml version="1.0" encoding="utf-8"?>
<!-- Generator: Adobe Illustrator 24.3.0, SVG Export Plug-In . SVG Version: 6.00 Build 0)  -->
<svg version="1.1" id="bold" xmlns="http://www.w3.org/2000/svg" xmlns:xlink="http://www.w3.org/1999/xlink" x="0px" y="0px"
	 viewBox="0 0 512 512" style="enable-background:new 0 0 512 512;" xml:space="preserve">
<path fill="#ffffff" d="M261.3,42.7h-23.5C230.8,18.1,208.2,0,181.3,0s-49.5,18.1-56.5,42.7h-23.5c-8.7,0-16,7.3-16,16v32
	c0,20.5,16.9,37.3,37.3,37.3H240c20.5,0,37.3-16.9,37.3-37.3v-32C277.3,49.9,270.1,42.7,261.3,42.7z"/>
<path fill="#ffffff" d="M304,64h-5.3v26.7c0,32.4-26.2,58.7-58.7,58.7H122.7c-32.4,0-58.7-26.2-58.7-58.7V64h-5.3C26.2,64,0,90.2,0,122.7v266.7
	C0,421.8,26.2,448,58.7,448h140.6c-10.7-22.8-17.1-48-17.7-74.7H80c-8.7,0-16-7.3-16-16s7.3-16,16-16h103.3
	c1.9-13,5.1-25.4,9.4-37.3H80c-8.7,0-16-7.3-16-16c0-8.7,7.3-16,16-16h128c8.3-13.7,18.1-26.2,29.7-37.3H80c-8.7,0-16-7.3-16-16
	s7.3-16,16-16h201.4c24.5-12.8,52.1-20.5,81.3-21.1v-58.9C362.7,90.2,336.4,64,304,64z"/>
<path fill="#ffffff" d="M368,224c-79.5,0-144,64.5-144,144s64.5,144,144,144s144-64.5,144-144S447.5,224,368,224z M428.4,384.1h-44.3v44.3
	c0,8.9-7.2,16.1-16.1,16.1s-16.1-7.2-16.1-16.1v-44.3h-44.3c-8.9,0-16.1-7.2-16.1-16.1s7.2-16.1,16.1-16.1h44.3v-44.3
	c0-8.9,7.2-16.1,16.1-16.1s16.1,7.2,16.1,16.1v44.3h44.3c8.9,0,16.1,7.2,16.1,16.1S437.3,384.1,428.4,384.1z"/>
</svg>
